<?xml version="1.0" encoding="UTF-8" standalone="no"?>
<!-- Created with Inkscape (http://www.inkscape.org/) -->

<svg
   xmlns:dc="http://purl.org/dc/elements/1.1/"
   xmlns:cc="http://creativecommons.org/ns#"
   xmlns:rdf="http://www.w3.org/1999/02/22-rdf-syntax-ns#"
   xmlns:svg="http://www.w3.org/2000/svg"
   xmlns="http://www.w3.org/2000/svg"
   xmlns:sodipodi="http://sodipodi.sourceforge.net/DTD/sodipodi-0.dtd"
   xmlns:inkscape="http://www.inkscape.org/namespaces/inkscape"
   width="150mm"
   height="37.299999mm"
   viewBox="0 0 150 37.299999"
   version="1.1"
   id="svg8"
   inkscape:version="0.92.4 (5da689c313, 2019-01-14)"
   sodipodi:docname="LogoWhite.svg">
  <defs
     id="defs2" />
  <sodipodi:namedview
     id="base"
     pagecolor="#ffffff"
     bordercolor="#666666"
     borderopacity="1.0"
     inkscape:pageopacity="0"
     inkscape:pageshadow="2"
     inkscape:zoom="0.98994949"
     inkscape:cx="289.75545"
     inkscape:cy="185.09318"
     inkscape:document-units="mm"
     inkscape:current-layer="g4696"
     showgrid="false"
     inkscape:window-width="1280"
     inkscape:window-height="962"
     inkscape:window-x="-8"
     inkscape:window-y="-8"
     inkscape:window-maximized="1"
     inkscape:pagecheckerboard="true" />
  <metadata
     id="metadata5">
    <rdf:RDF>
      <cc:Work
         rdf:about="">
        <dc:format>image/svg+xml</dc:format>
        <dc:type
           rdf:resource="http://purl.org/dc/dcmitype/StillImage" />
        <dc:title />
      </cc:Work>
    </rdf:RDF>
  </metadata>
  <g
     inkscape:groupmode="layer"
     id="layer4"
     inkscape:label="Layer 3"
     style="display:none"
     transform="translate(0,-259.7)">
    <rect
       style="opacity:1;fill:#000000;fill-opacity:1;stroke:none;stroke-width:0.26458332;stroke-opacity:1"
       id="rect4661"
       width="223.43733"
       height="211.14293"
       x="1.0690781"
       y="1.132633" />
  </g>
  <g
     inkscape:groupmode="layer"
     id="layer2"
     inkscape:label="Layer 2"
     style="display:inline"
     transform="translate(0,-259.7)">
    <g
       id="g4696"
       inkscape:export-xdpi="96"
       inkscape:export-ydpi="96"
       transform="matrix(1.0000025,0,0,1,-28.663963,125.54672)">
      <g
         id="g927">
        <path
           style="fill:#ffffff;stroke-width:0.18421054"
           d="m 28.663891,134.15347 v 23.99957 H 178.66352 v -23.99957 z m 103.772989,1.99988 h 4.63796 v 3.88865 h -4.63796 z m 19.61845,0 h 4.63795 v 3.88865 h -4.63795 z m -113.091292,0.2775 h 9.541537 v 3.88917 h -8.481137 c -1.060119,0 -1.590085,0.55545 -1.590085,1.66657 v 8.88886 c 0,0.42592 0.114472,0.76858 0.344165,1.02784 0.247361,0.24074 0.556551,0.36122 0.927592,0.36122 h 1.219565 c 0.441717,-0.0185 0.901155,-0.0373 1.378209,-0.0558 l 1.430923,-0.0553 c 0.49472,-0.0185 1.121785,-0.0556 1.881536,-0.11111 0.777423,-0.0556 1.740768,-0.12075 2.889232,-0.19482 v 3.75016 c -3.940114,0.37037 -7.208827,0.55552 -9.80612,0.55552 -1.731531,0 -3.004063,-0.42559 -3.816824,-1.27744 -0.812757,-0.85185 -1.219046,-2.18546 -1.219046,-4.00027 v -8.88886 c 0,-1.94445 0.415494,-3.3516 1.24592,-4.22197 0.848096,-0.88889 2.199323,-1.33377 4.054533,-1.33377 z m 11.373983,0 h 4.637958 v 5.00021 c 1.713862,-0.37037 3.215341,-0.55552 4.505153,-0.55552 h 1.192691 c 1.20147,0 2.164297,0.37969 2.888713,1.13895 0.724416,0.75926 1.086755,1.76846 1.086755,3.02772 v 10.83345 H 60.01133 v -10.27793 c 0,-0.27777 -0.08841,-0.50934 -0.265099,-0.69453 -0.176686,-0.18518 -0.397463,-0.2775 -0.66249,-0.2775 h -0.927593 c -0.671409,0 -1.289788,0.037 -1.855184,0.1111 -0.54773,0.0741 -0.989279,0.12936 -1.324985,0.1664 v 10.97246 h -4.637958 z m 90.720559,1.38906 h 4.10828 v 3.33313 h 3.31297 v 3.75016 h -3.31297 v 6.38876 c 0,0.27778 0.0884,0.50935 0.26509,0.69453 0.17669,0.18519 0.39747,0.27802 0.6625,0.27802 h 3.44526 v 3.61115 c -1.71386,0.18518 -3.39216,0.2775 -5.03535,0.2775 -1.20146,0 -2.16481,-0.37969 -2.88923,-1.13895 -0.72441,-0.75926 -1.08623,-1.76846 -1.08623,-3.02772 v -7.08329 h -1.5906 v -3.75016 h 1.5906 z m -37.67315,3.05563 h 6.09523 c 1.32515,0 2.35902,0.39795 3.1011,1.19424 0.75976,0.77778 1.13947,1.86105 1.13947,3.24994 v 6.38927 c 0,1.38889 -0.37971,2.48154 -1.13947,3.27783 -0.74208,0.77778 -1.77595,1.16634 -3.1011,1.16634 h -6.09523 c -1.32515,0 -2.36771,-0.38856 -3.12746,-1.16634 -0.742084,-0.79629 -1.113112,-1.88894 -1.113112,-3.27783 v -6.38927 c 0,-1.38889 0.371028,-2.47216 1.113112,-3.24994 0.75975,-0.79629 1.80231,-1.19424 3.12746,-1.19424 z m 65.11024,0 h 1.19269 c 1.20146,0 2.16429,0.37969 2.88871,1.13895 0.72441,0.75926 1.08675,1.76846 1.08675,3.02772 v 10.83345 h -4.63796 v -9.99991 c 0,-0.27777 -0.0884,-0.50934 -0.2651,-0.69453 -0.17668,-0.18518 -0.39746,-0.27802 -0.66249,-0.27802 h -0.92759 c -0.93644,0 -1.99688,0.18515 -3.18068,0.55553 v 10.41693 h -4.63796 v -14.72262 h 4.10776 l 0.2651,1.38907 c 0.83042,-0.57408 1.67878,-0.9908 2.54454,-1.25006 0.88344,-0.27777 1.62549,-0.41651 2.22623,-0.41651 z m -101.438258,0.2775 h 4.63796 v 10.00043 c 0,0.27777 0.08841,0.50883 0.2651,0.69401 0.176688,0.18519 0.397462,0.27802 0.662492,0.27802 h 0.927592 c 0.93644,0 1.996885,-0.18515 3.180684,-0.55552 v -10.41694 h 4.63796 v 14.72262 h -4.108275 l -0.265102,-1.38906 c -0.830427,0.57407 -1.686952,1.00018 -2.570385,1.27796 -0.865764,0.25925 -1.599131,0.3886 -2.199865,0.3886 h -1.192694 c -1.201467,0 -2.164297,-0.37969 -2.88871,-1.13895 -0.724416,-0.75926 -1.086757,-1.76846 -1.086757,-3.02772 z m 20.158977,0 h 9.010819 v 3.61115 h -7.420734 c -0.265031,0 -0.485807,0.0928 -0.662493,0.27802 -0.176686,0.18519 -0.265099,0.41676 -0.265099,0.69453 0,0.27778 0.08841,0.50935 0.265099,0.69454 0.176686,0.18518 0.397462,0.2775 0.662493,0.2775 h 4.770768 c 1.201467,0 2.164297,0.37969 2.88871,1.13895 0.724416,0.75925 1.086239,1.76846 1.086239,3.02772 v 1.11104 c 0,1.25926 -0.361823,2.26846 -1.086239,3.02772 -0.724413,0.75926 -1.687243,1.13895 -2.88871,1.13895 -3.127354,0 -6.484483,-0.18515 -10.071222,-0.55552 v -3.61115 c 3.586739,0.27778 6.413386,0.41703 8.480621,0.41703 0.265028,0 0.485804,-0.0928 0.66249,-0.27802 0.176689,-0.18518 0.265102,-0.41675 0.265102,-0.69453 v -0.97203 h -5.697844 c -1.201471,0 -2.164297,-0.37969 -2.888713,-1.13895 -0.724416,-0.75926 -1.086755,-1.76847 -1.086755,-3.02772 v -0.97255 c 0,-1.25926 0.362339,-2.26847 1.086755,-3.02773 0.724416,-0.75926 1.687242,-1.13895 2.888713,-1.13895 z m 27.063981,0 h 4.90306 l 3.04787,10.00043 3.04788,-10.00043 h 4.90306 l -5.30045,14.72262 h -5.30097 z m 16.16904,0.55604 h 6.62543 v 14.16658 h -4.63796 v -10.41693 h -1.98747 z m 19.61844,0 h 6.62543 v 14.16658 h -4.63795 v -10.41693 h -1.98748 z m -45.22515,2.91662 c -0.70674,0 -1.05988,0.3703 -1.05988,1.11104 v 5.55522 c 0,0.74074 0.35314,1.11156 1.05988,1.11156 h 3.18069 c 0.70674,0 1.05988,-0.37082 1.05988,-1.11156 v -5.55522 c 0,-0.74074 -0.35314,-1.11104 -1.05988,-1.11104 z"
           id="rect10"
           inkscape:connector-curvature="0" />
        <g
           aria-label="D"
           transform="matrix(0.99999491,0,0,1.0000051,-1.3363446,61.153277)"
           style="font-style:normal;font-variant:normal;font-weight:normal;font-stretch:normal;font-size:13.22909927px;line-height:1.25;font-family:'Russo One';-inkscape-font-specification:'Russo One, Normal';font-variant-ligatures:normal;font-variant-caps:normal;font-variant-numeric:normal;font-feature-settings:normal;text-align:start;letter-spacing:0px;word-spacing:0px;writing-mode:lr-tb;text-anchor:start;fill:#ffffff;fill-opacity:1;stroke:none;stroke-width:0.26458198;stroke-opacity:1"
           id="text51">
          <path
             inkscape:connector-curvature="0"
             d="m 41.159531,98.739081 q 1.494888,0 2.262176,0.780517 0.780517,0.767292 0.780517,2.262172 v 3.17499 q 0,1.49489 -0.780517,2.2754 -0.767288,0.76729 -2.262176,0.76729 h -5.159349 v -9.260369 z m 0.661455,3.042689 q 0,-1.19061 -1.190619,-1.19061 H 38.38142 v 5.55622 h 2.248947 q 1.190619,0 1.190619,-1.19062 z"
             style="fill:#ffffff;fill-opacity:1;stroke:none;stroke-width:0.26458198;stroke-opacity:1"
             id="path146" />
        </g>
        <g
           id="text4665"
           style="font-style:normal;font-variant:normal;font-weight:normal;font-stretch:normal;font-size:13.22916698px;line-height:1.25;font-family:'Russo One';-inkscape-font-specification:'Russo One, Normal';font-variant-ligatures:normal;font-variant-caps:normal;font-variant-numeric:normal;font-feature-settings:normal;text-align:start;letter-spacing:0px;word-spacing:0px;writing-mode:lr-tb;text-anchor:start;fill:#ffffff;fill-opacity:1;stroke:none;stroke-width:0.26458332"
           aria-label="m">
          <path
             id="path911"
             style="fill:#ffffff;font-style:normal;font-variant:normal;font-weight:normal;font-stretch:normal;font-size:13.22916698px;font-family:'Russo One';-inkscape-font-specification:'Russo One, Normal';font-variant-ligatures:normal;font-variant-caps:normal;font-variant-numeric:normal;font-feature-settings:normal;text-align:start;writing-mode:lr-tb;text-anchor:start;stroke-width:0.26458332"
             d="m 166.36001,162.00952 q 1.07156,0 1.65365,0.79375 0.60854,-0.4101 1.30968,-0.59531 0.71438,-0.19844 1.27,-0.19844 h 0.13229 q 0.89959,0 1.44198,0.5424 0.5424,0.5424 0.5424,1.44198 v 5.15937 h -2.3151 v -4.7625 q 0,-0.19843 -0.1323,-0.33072 -0.13229,-0.1323 -0.33073,-0.1323 h -0.0661 q -0.59531,0 -1.52136,0.26459 v 4.96093 h -2.3151 v -4.7625 q 0,-0.19843 -0.13229,-0.33072 -0.13229,-0.1323 -0.33073,-0.1323 h -0.0661 q -0.59531,0 -1.52135,0.26459 v 4.96093 h -2.3151 v -7.01145 h 2.05052 l 0.13229,0.66145 q 0.62177,-0.4101 1.27,-0.59531 0.66146,-0.19844 1.11125,-0.19844 z" />
        </g>
        <g
           id="text4669"
           style="font-style:normal;font-variant:normal;font-weight:normal;font-stretch:normal;font-size:13.22916698px;line-height:1.25;font-family:'Russo One';-inkscape-font-specification:'Russo One, Normal';font-variant-ligatures:normal;font-variant-caps:normal;font-variant-numeric:normal;font-feature-settings:normal;text-align:start;letter-spacing:0px;word-spacing:0px;writing-mode:lr-tb;text-anchor:start;fill:#ffffff;fill-opacity:1;stroke:none;stroke-width:0.26458332"
           aria-label="o">
          <path
             id="path908"
             style="fill:#ffffff;font-style:normal;font-variant:normal;font-weight:normal;font-stretch:normal;font-size:13.22916698px;font-family:'Russo One';-inkscape-font-specification:'Russo One, Normal';font-variant-ligatures:normal;font-variant-caps:normal;font-variant-numeric:normal;font-feature-settings:normal;text-align:start;writing-mode:lr-tb;text-anchor:start;stroke-width:0.26458332"
             d="m 142.16069,167.03661 q 0,0.99218 -0.56885,1.56104 -0.55563,0.55562 -1.54781,0.55562 h -3.04271 q -0.99219,0 -1.56104,-0.55562 -0.55563,-0.56886 -0.55563,-1.56104 v -3.04271 q 0,-0.99219 0.55563,-1.54782 0.56885,-0.56885 1.56104,-0.56885 h 3.04271 q 0.99218,0 1.54781,0.56885 0.56885,0.55563 0.56885,1.54782 z m -2.3151,-2.84428 q 0,-0.52916 -0.52917,-0.52916 h -1.5875 q -0.52917,0 -0.52917,0.52916 v 2.64584 q 0,0.52916 0.52917,0.52916 h 1.5875 q 0.52917,0 0.52917,-0.52916 z" />
        </g>
        <g
           id="text4673"
           style="font-style:normal;font-variant:normal;font-weight:normal;font-stretch:normal;font-size:13.22916698px;line-height:1.25;font-family:'Russo One';-inkscape-font-specification:'Russo One, Normal';font-variant-ligatures:normal;font-variant-caps:normal;font-variant-numeric:normal;font-feature-settings:normal;text-align:start;letter-spacing:0px;word-spacing:0px;writing-mode:lr-tb;text-anchor:start;fill:#ffffff;fill-opacity:1;stroke:none;stroke-width:0.26458332"
           aria-label="l">
          <path
             id="path905"
             style="fill:#ffffff;font-style:normal;font-variant:normal;font-weight:normal;font-stretch:normal;font-size:13.22916698px;font-family:'Russo One';-inkscape-font-specification:'Russo One, Normal';font-variant-ligatures:normal;font-variant-caps:normal;font-variant-numeric:normal;font-feature-settings:normal;text-align:start;writing-mode:lr-tb;text-anchor:start;stroke-width:0.26458332"
             d="m 115.38553,169.02098 q -0.88635,0.13229 -1.69333,0.13229 -0.79375,0 -1.33615,-0.54239 -0.54239,-0.5424 -0.54239,-1.44198 v -7.40834 h 2.3151 v 7.07761 q 0,0.19844 0.13229,0.33073 0.13229,0.13229 0.33073,0.13229 h 0.79375 z" />
        </g>
        <g
           id="text4677"
           style="font-style:normal;font-variant:normal;font-weight:normal;font-stretch:normal;font-size:13.22939873px;line-height:1.25;font-family:'Russo One';-inkscape-font-specification:'Russo One, Normal';font-variant-ligatures:normal;font-variant-caps:normal;font-variant-numeric:normal;font-feature-settings:normal;text-align:start;letter-spacing:0px;word-spacing:0px;writing-mode:lr-tb;text-anchor:start;fill:#ffffff;fill-opacity:1;stroke:none;stroke-width:0.26458794"
           transform="scale(1.0000175,0.99998251)"
           aria-label="p">
          <path
             id="path902"
             style="fill:#ffffff;font-style:normal;font-variant:normal;font-weight:normal;font-stretch:normal;font-size:13.22939873px;font-family:'Russo One';-inkscape-font-specification:'Russo One, Normal';font-variant-ligatures:normal;font-variant-caps:normal;font-variant-numeric:normal;font-feature-settings:normal;text-align:start;writing-mode:lr-tb;text-anchor:start;stroke-width:0.26458794"
             d="m 89.071841,163.98166 q -0.701159,0 -1.587528,0.26459 v 3.17506 h 1.98441 q 0.529176,0 0.529176,-0.52918 v -2.44744 q 0,-0.19844 -0.132294,-0.33073 -0.132294,-0.1323 -0.330735,-0.1323 z m -1.587528,5.22562 v 2.24899 h -2.315145 v -9.26058 h 2.050557 l 0.132294,0.66147 q 0.621782,-0.41011 1.270022,-0.59532 0.66147,-0.19844 1.11127,-0.19844 h 0.595322 q 0.8996,0 1.442005,0.54241 0.542405,0.5424 0.542405,1.442 v 3.04276 q 0,0.99221 -0.568864,1.56107 -0.555635,0.55564 -1.547839,0.55564 z" />
        </g>
        <g
           id="text4681"
           style="font-style:normal;font-variant:normal;font-weight:normal;font-stretch:normal;font-size:13.22916698px;line-height:1.25;font-family:'Russo One';-inkscape-font-specification:'Russo One, Normal';font-variant-ligatures:normal;font-variant-caps:normal;font-variant-numeric:normal;font-feature-settings:normal;text-align:start;letter-spacing:0px;word-spacing:0px;writing-mode:lr-tb;text-anchor:start;fill:#ffffff;fill-opacity:1;stroke:none;stroke-width:0.26458332"
           aria-label="i">
          <path
             id="path899"
             style="fill:#ffffff;font-style:normal;font-variant:normal;font-weight:normal;font-stretch:normal;font-size:13.22916698px;font-family:'Russo One';-inkscape-font-specification:'Russo One, Normal';font-variant-ligatures:normal;font-variant-caps:normal;font-variant-numeric:normal;font-feature-settings:normal;text-align:start;writing-mode:lr-tb;text-anchor:start;fill:#ffffff;stroke-width:0.26458332"
             d="m 65.671946,162.4064 v 6.74687 h -2.315104 v -4.96093 h -0.992188 v -1.78594 z m -2.315104,-2.64583 h 2.315104 v 1.85208 h -2.315104 z" />
        </g>
      </g>
    </g>
  </g>
</svg>
